<?xml version="1.0" standalone="no"?>
<!DOCTYPE svg PUBLIC "-//W3C//DTD SVG 20010904//EN"
 "http://www.w3.org/TR/2001/REC-SVG-20010904/DTD/svg10.dtd">
<svg version="1.0" xmlns="http://www.w3.org/2000/svg"
 width="280.000000pt" height="280.000000pt" viewBox="0 0 280.000000 280.000000"
 preserveAspectRatio="xMidYMid meet">
<metadata>
Created by potrace 1.14, written by Peter Selinger 2001-2017
</metadata>
<g transform="translate(0.000000,280.000000) scale(0.100000,-0.100000)"
fill="#000000" stroke="none">
<path d="M155 2167 c-58 -23 -91 -49 -121 -96 -25 -40 -29 -55 -29 -116 1 -78
16 -117 68 -166 34 -33 63 -47 112 -57 17 -3 408 -5 870 -5 821 0 841 0 885
20 91 41 134 106 134 203 0 102 -42 168 -134 209 -44 20 -60 21 -900 20 -630
0 -863 -4 -885 -12z"/>
<path d="M480 1609 c-55 -25 -86 -53 -110 -99 -44 -87 -33 -182 31 -254 74
-83 4 -78 1058 -78 892 0 935 1 948 18 11 15 11 20 -1 32 -11 11 -42 15 -126
15 -119 -1 -150 10 -131 46 9 15 32 17 248 16 189 0 241 2 252 13 11 10 12 19
4 31 -9 14 -41 17 -229 21 -120 4 -220 7 -221 8 -8 6 -1 42 10 49 6 4 81 8
165 8 162 1 182 7 161 47 -9 17 -28 18 -244 18 -128 0 -240 3 -249 6 -19 7
-21 40 -4 50 7 5 91 8 187 8 151 1 175 3 184 18 8 12 7 21 -2 32 -12 15 -105
16 -950 16 -919 -1 -937 -1 -981 -21z"/>
<path d="M2467 1623 c-13 -12 -7 -42 11 -51 25 -13 117 -9 136 7 11 9 13 18 6
31 -8 14 -23 18 -78 19 -38 0 -72 -2 -75 -6z"/>
<path d="M2593 1489 c-11 -11 -6 -48 6 -50 3 0 14 -2 25 -4 37 -7 62 18 50 50
-7 18 -65 20 -81 4z"/>
<path d="M2701 1356 c-24 -29 14 -61 58 -49 46 12 30 63 -19 63 -15 0 -33 -6
-39 -14z"/>
<path d="M2480 1240 c-18 -4 -25 -13 -25 -30 0 -19 7 -26 33 -31 26 -5 35 -3
47 14 22 32 -9 59 -55 47z"/>
<path d="M2640 1240 c-46 -5 -65 -29 -42 -52 11 -11 145 -14 162 -3 21 13 10
45 -17 50 -46 10 -56 11 -103 5z"/>
<path d="M948 1085 c-3 -3 -175 -5 -382 -6 -416 0 -432 -2 -495 -62 -48 -46
-71 -104 -67 -174 3 -67 23 -111 71 -157 60 -59 41 -58 961 -58 463 0 857 3
876 7 62 13 128 74 151 140 37 108 -4 215 -107 279 -25 16 -138 30 -211 28
-13 -1 -295 -1 -315 -1 -8 0 -115 0 -238 -1 -122 -1 -226 1 -231 4 -4 3 -10 3
-13 1z"/>
</g>
</svg>
